HIERARCHY
ROOT Hips
{
	OFFSET -0.001795 -0.223333 0.028219
	CHANNELS 6 Xposition Yposition Zposition Zrotation Yrotation Xrotation 
	JOINT LeftUpLeg
	{
		OFFSET 0.069520 -0.091406 -0.006815
		CHANNELS 3 Zrotation Yrotation Xrotation
		JOINT LeftLeg
		{
			OFFSET 0.034277 -0.375199 -0.004496
			CHANNELS 3 Zrotation Yrotation Xrotation
			JOINT LeftFoot
			{
				OFFSET -0.013596 -0.397961 -0.043693
				CHANNELS 3 Zrotation Yrotation Xrotation
				JOINT LeftToe
				{
					OFFSET 0.026358 -0.055791 0.119288
					CHANNELS 3 Zrotation Yrotation Xrotation
					End Site
					{
						OFFSET 0.000000 0.000000 0.000000
					}
				}
			}
		}
	}
	JOINT RightUpLeg
	{
		OFFSET -0.067670 -0.090522 -0.004320
		CHANNELS 3 Zrotation Yrotation Xrotation
		JOINT RightLeg
		{
			OFFSET -0.038290 -0.382569 -0.008850
			CHANNELS 3 Zrotation Yrotation Xrotation
			JOINT RightFoot
			{
				OFFSET 0.015774 -0.398415 -0.042312
				CHANNELS 3 Zrotation Yrotation Xrotation
				JOINT RightToe
				{
					OFFSET -0.025372 -0.048144 0.123348
					CHANNELS 3 Zrotation Yrotation Xrotation
					End Site
					{
						OFFSET 0.000000 0.000000 0.000000
					}
				}
			}
		}
	}
	JOINT Spine
	{
		OFFSET -0.002533 0.108963 -0.026696
		CHANNELS 3 Zrotation Yrotation Xrotation
		JOINT Spine1
		{
			OFFSET 0.005487 0.135180 0.001092
			CHANNELS 3 Zrotation Yrotation Xrotation
			JOINT Spine2
			{
				OFFSET 0.001457 0.052922 0.025425
				CHANNELS 3 Zrotation Yrotation Xrotation
				JOINT Neck
				{
					OFFSET -0.002778 0.213870 -0.042857
					CHANNELS 3 Zrotation Yrotation Xrotation
					JOINT Head
					{
						OFFSET 0.005152 0.064970 0.051349
						CHANNELS 3 Zrotation Yrotation Xrotation
						End Site
						{
							OFFSET 0.000000 0.000000 0.000000
						}
					}
				}
				JOINT LeftShoulder
				{
					OFFSET 0.078845 0.121749 -0.034090
					CHANNELS 3 Zrotation Yrotation Xrotation
					JOINT LeftArm
					{
						OFFSET 0.090977 0.030469 -0.008868
						CHANNELS 3 Zrotation Yrotation Xrotation
						JOINT LeftForeArm
						{
							OFFSET 0.259612 -0.012772 -0.027456
							CHANNELS 3 Zrotation Yrotation Xrotation
							JOINT LeftHand
							{
								OFFSET 0.249234 0.008986 -0.001171
								CHANNELS 3 Zrotation Yrotation Xrotation
								End Site
								{
									OFFSET 0.000000 0.000000 0.000000
								}
							}
						}
					}
				}
				JOINT RightShoulder
				{
					OFFSET -0.081759 0.118833 -0.038615
					CHANNELS 3 Zrotation Yrotation Xrotation
					JOINT RightArm
					{
						OFFSET -0.096012 0.032551 -0.009143
						CHANNELS 3 Zrotation Yrotation Xrotation
						JOINT RightForeArm
						{
							OFFSET -0.253742 -0.013329 -0.021401
							CHANNELS 3 Zrotation Yrotation Xrotation
							JOINT RightHand
							{
								OFFSET -0.255298 0.007772 -0.005559
								CHANNELS 3 Zrotation Yrotation Xrotation
								End Site
								{
									OFFSET 0.000000 0.000000 0.000000
								}
							}
						}
					}
				}
			}
		}
	}
}
MOTION
Frames: 10
Frame Time: 0.050000
0.000000 0.948000 0.000000 0.304438 -4.647393 2.102931 3.423023 0.018412 0.715951 -0.660892 0.206775 -4.508125 -0.885854 1.438258 8.508971 0.000000 0.000000 0.000000 -2.202774 0.138660 -0.720208 -0.737660 -0.017712 -1.922014 -0.208424 -4.253837 7.481521 0.000000 0.000000 0.000000 4.455008 0.036587 -1.242277 -3.350318 1.551589 -2.302702 -3.196419 5.238391 7.444516 4.914178 -1.539833 -15.998561 0.000000 0.000000 0.000000 -20.080568 -6.922686 1.029679 -51.146881 -7.925573 -2.822803 -5.994803 -20.509873 1.759821 0.000000 0.000000 0.000000 17.887539 0.065978 -0.778139 60.855368 6.535597 -2.878530 5.470181 24.849147 2.160990 0.000000 0.000000 0.000000 
0.000183 0.947369 0.000444 0.158433 -5.019762 2.445828 3.757173 0.060567 1.459456 -0.983221 0.289079 -6.443529 -1.111847 1.132303 8.896722 0.000000 0.000000 0.000000 -2.104695 0.172084 -1.150194 -0.873779 0.004040 -1.670991 -0.265099 -4.335378 7.316971 0.000000 0.000000 0.000000 5.216655 0.067150 -1.653390 -3.579076 1.663166 -1.890070 -4.212843 5.886110 6.867251 4.970300 -1.327690 -17.191633 0.000000 0.000000 0.000000 -20.444054 -7.111317 0.884181 -50.569497 -8.117391 -2.594205 -5.982470 -20.185583 1.699077 0.000000 0.000000 0.000000 17.763047 -0.754585 -1.068298 62.214739 5.747210 -3.249285 5.189833 25.345166 2.192257 0.000000 0.000000 0.000000 
0.000379 0.947225 0.000639 0.456744 -4.976143 2.466093 3.513345 0.029272 0.913136 -1.034356 0.254576 -5.140344 -1.348932 0.360522 7.929739 0.000000 0.000000 0.000000 -2.369744 0.196803 -1.366041 -0.913071 0.019135 -1.419223 -0.737025 -5.257755 7.165327 0.000000 0.000000 0.000000 5.213015 0.064646 -1.628767 -3.487257 1.589966 -3.162619 -4.670434 5.797647 7.639247 4.564645 -1.151989 -16.787498 0.000000 0.000000 0.000000 -19.789721 -7.236556 1.054553 -51.046482 -8.192578 -2.690058 -5.435733 -18.853221 1.507016 0.000000 0.000000 0.000000 18.784008 -0.229514 -0.823016 61.208770 5.180162 -3.642561 5.214402 25.487285 2.215651 0.000000 0.000000 0.000000 
0.000482 0.947087 0.000936 0.648175 -4.853997 2.445514 3.627360 0.049729 1.269288 -1.473053 0.311651 -6.139378 -2.152284 -0.741592 8.828255 0.000000 0.000000 0.000000 -2.598500 0.186944 -1.151799 -0.748616 -0.017201 -1.921445 -1.232518 -6.417241 7.533807 0.000000 0.000000 0.000000 5.085980 0.091095 -1.930590 -3.495084 1.615591 -2.291674 -4.766108 5.388003 6.948816 3.831756 -0.796083 -16.213552 0.000000 0.000000 0.000000 -20.112922 -6.898631 0.894477 -50.842594 -8.460548 -2.506166 -4.963002 -18.671202 1.418823 0.000000 0.000000 0.000000 18.417755 -0.302280 -0.933774 61.176392 4.758273 -3.770227 5.322743 25.951209 2.261716 0.000000 0.000000 0.000000 
0.000584 0.947489 0.001214 0.814295 -4.866975 2.194933 3.139181 0.073878 1.459781 -0.967888 0.277947 -6.106593 -1.984345 -0.471698 8.750459 0.000000 0.000000 0.000000 -2.763876 0.181146 -1.022388 -0.758694 -0.009589 -1.772611 -1.363878 -6.632003 7.378328 0.000000 0.000000 0.000000 4.987738 0.085605 -1.822171 -3.532807 1.633632 -2.297978 -4.789294 5.333677 6.971508 3.363317 -0.576897 -15.685272 0.000000 0.000000 0.000000 -20.203544 -6.892451 0.903762 -50.473153 -8.523168 -2.469053 -5.229619 -18.498293 1.450060 0.000000 0.000000 0.000000 18.360767 -0.699850 -1.163522 60.840901 4.361064 -3.962181 5.683748 26.201842 2.362672 0.000000 0.000000 0.000000 
0.000662 0.947785 0.001536 0.933096 -4.476706 2.119730 3.108185 0.082719 1.611954 -1.235879 0.300836 -6.352090 -2.126739 -0.630949 8.894168 0.000000 0.000000 0.000000 -2.877128 0.171506 -0.872156 -0.731509 -0.019369 -1.953172 -1.529998 -7.051173 7.684330 0.000000 0.000000 0.000000 4.961714 0.098748 -1.971915 -3.473216 1.610712 -2.215957 -4.864547 5.008914 7.078972 2.693058 -0.167095 -15.746023 0.000000 0.000000 0.000000 -20.641874 -6.672341 0.781527 -50.115863 -8.597015 -2.427518 -5.294860 -18.663544 1.477080 0.000000 0.000000 0.000000 18.247286 -0.784713 -1.223262 60.896565 4.027973 -4.144092 5.262428 26.070425 2.255570 0.000000 0.000000 0.000000 
0.000735 0.948070 0.001760 1.001331 -4.441455 1.957834 2.917856 0.099034 1.769976 -1.033356 0.291882 -6.480689 -2.151980 -0.508450 9.315793 0.000000 0.000000 0.000000 -2.932679 0.163739 -0.756332 -0.751457 -0.008899 -1.759688 -1.465958 -6.835034 7.454315 0.000000 0.000000 0.000000 4.950237 0.092998 -1.877198 -3.518849 1.632438 -2.210904 -4.941610 4.802709 7.130181 2.472322 -0.031011 -15.938475 0.000000 0.000000 0.000000 -20.599819 -6.169570 0.564644 -50.168789 -8.226572 -2.607463 -5.660833 -19.225386 1.588781 0.000000 0.000000 0.000000 18.193875 -1.097345 -1.431944 60.991610 3.331638 -4.511471 5.206153 26.353177 2.263748 0.000000 0.000000 0.000000 
0.000820 0.948351 0.001934 1.044705 -4.151379 1.842337 2.718075 0.106143 1.822740 -0.963403 0.285131 -6.435349 -2.329763 -0.886175 9.081411 0.000000 0.000000 0.000000 -3.039126 0.147370 -0.509264 -0.616938 -0.019848 -1.768582 -1.695055 -7.212262 7.254808 0.000000 0.000000 0.000000 4.970307 0.101938 -1.964977 -3.594279 1.671506 -2.104803 -5.067985 4.697066 7.194212 1.526199 0.554664 -15.890945 0.000000 0.000000 0.000000 -20.457243 -6.157788 0.550335 -50.013862 -7.991046 -2.699997 -6.225720 -20.011267 1.749392 0.000000 0.000000 0.000000 18.036713 -1.490690 -1.613604 61.295015 2.855949 -4.776401 5.197849 26.443114 2.279844 0.000000 0.000000 0.000000 
0.000915 0.948534 0.002075 1.182100 -4.117294 1.690910 2.505933 0.119728 1.926279 -0.968202 0.284942 -6.419408 -2.315170 -0.844919 9.109893 0.000000 0.000000 0.000000 -3.202357 0.147187 -0.445579 -0.499137 -0.018022 -1.506554 -1.795354 -7.315515 6.961027 0.000000 0.000000 0.000000 4.917118 0.107505 -2.004401 -3.632839 1.690983 -2.061634 -5.204680 4.649218 7.191756 0.951227 0.891980 -15.704466 0.000000 0.000000 0.000000 -20.310229 -5.955815 0.453757 -50.084661 -8.095656 -2.667629 -6.512118 -20.139683 1.810359 0.000000 0.000000 0.000000 17.935400 -1.687239 -1.714468 61.289009 2.212826 -5.105728 5.301736 26.559478 2.314088 0.000000 0.000000 0.000000 
0.000947 0.948750 0.002245 1.299283 -4.048564 1.529759 2.300729 0.136771 2.076085 -0.977937 0.285709 -6.430111 -2.204731 -0.700008 8.957506 0.000000 0.000000 0.000000 -3.393191 0.136988 -0.221578 -0.403041 -0.038554 -1.801477 -1.952694 -7.646797 6.990982 0.000000 0.000000 0.000000 4.928915 0.112765 -2.035495 -3.786815 1.760571 -2.149244 -5.276283 4.780018 7.436934 -0.172911 1.622233 -15.952733 0.000000 0.000000 0.000000 -20.181698 -6.072420 0.489867 -50.163939 -8.330864 -2.591582 -6.798748 -20.347974 1.875733 0.000000 0.000000 0.000000 17.910197 -2.055580 -1.865388 61.380780 1.740504 -5.379668 5.462532 26.875998 2.399592 0.000000 0.000000 0.000000 
